<svg width="280" height="251" viewBox="0 0 280 251" fill="none" xmlns="http://www.w3.org/2000/svg">
<circle cx="228" cy="146" r="52" fill="#C3C2BE"/>
<circle cx="174" cy="52" r="52" fill="#4E46B4"/>
<circle cx="178" cy="205" r="23" fill="url(#paint0_linear_495_12273)"/>
<circle cx="171" cy="118" r="11" fill="url(#paint1_linear_495_12273)"/>
<circle cx="101" cy="53" r="15" fill="url(#paint2_linear_495_12273)"/>
<g filter="url(#filter0_dd_495_12273)">
<circle cx="86" cy="153" r="80" fill="#FF4E64"/>
</g>
<path d="M61.5225 161.167C60.6875 161.167 60.1953 160.657 60.1953 159.787V149.53C60.1953 148.651 60.6875 148.142 61.5225 148.142C62.3574 148.142 62.8496 148.651 62.8496 149.53V153.468H68.5625V149.53C68.5625 148.651 69.0547 148.142 69.8896 148.142C70.7246 148.142 71.2168 148.651 71.2168 149.53V159.787C71.2168 160.657 70.7246 161.167 69.8896 161.167C69.0547 161.167 68.5625 160.657 68.5625 159.787V155.656H62.8496V159.787C62.8496 160.657 62.3574 161.167 61.5225 161.167ZM75.6992 161.149C73.9062 161.149 72.5439 159.989 72.5439 158.293C72.5439 156.579 73.8623 155.586 76.2178 155.445L78.5908 155.305V154.681C78.5908 153.802 77.9756 153.292 77.0088 153.292C76.2266 153.292 75.752 153.547 75.1807 154.285C74.8994 154.602 74.5742 154.76 74.1611 154.76C73.5371 154.76 73.0889 154.355 73.0889 153.775C73.0889 153.573 73.1328 153.389 73.2207 153.195C73.6602 152.07 75.1719 151.376 77.123 151.376C79.54 151.376 81.1133 152.624 81.1133 154.522V159.893C81.1133 160.745 80.5947 161.185 79.8652 161.185C79.1709 161.185 78.6875 160.798 78.6348 160.042V159.559H78.582C78.0547 160.561 76.877 161.149 75.6992 161.149ZM76.543 159.295C77.668 159.295 78.5908 158.565 78.5908 157.546V156.86L76.6045 156.983C75.6465 157.054 75.1016 157.484 75.1016 158.152C75.1016 158.855 75.6816 159.295 76.543 159.295ZM84.0576 164.357C83.3105 164.357 82.7744 163.9 82.7744 163.021V152.703C82.7744 151.842 83.3018 151.385 84.04 151.385C84.7783 151.385 85.3057 151.842 85.3057 152.712V153.222H85.3584C85.8682 152.114 86.9141 151.429 88.2764 151.429C90.667 151.429 92.1348 153.248 92.1348 156.289C92.1348 159.321 90.6758 161.149 88.3203 161.149C86.9492 161.149 85.8945 160.481 85.3936 159.418H85.3408V163.021C85.3408 163.9 84.8135 164.357 84.0576 164.357ZM87.415 159.084C88.6982 159.084 89.5068 158.003 89.5068 156.289C89.5068 154.584 88.6982 153.485 87.415 153.485C86.1582 153.485 85.332 154.602 85.332 156.289C85.332 157.994 86.1582 159.084 87.415 159.084ZM94.7451 164.357C93.998 164.357 93.4619 163.9 93.4619 163.021V152.703C93.4619 151.842 93.9893 151.385 94.7275 151.385C95.4658 151.385 95.9932 151.842 95.9932 152.712V153.222H96.0459C96.5557 152.114 97.6016 151.429 98.9639 151.429C101.354 151.429 102.822 153.248 102.822 156.289C102.822 159.321 101.363 161.149 99.0078 161.149C97.6367 161.149 96.582 160.481 96.0811 159.418H96.0283V163.021C96.0283 163.9 95.501 164.357 94.7451 164.357ZM98.1025 159.084C99.3857 159.084 100.194 158.003 100.194 156.289C100.194 154.584 99.3857 153.485 98.1025 153.485C96.8457 153.485 96.0195 154.602 96.0195 156.289C96.0195 157.994 96.8457 159.084 98.1025 159.084ZM105.521 164.489C104.396 164.489 103.789 164.059 103.789 163.285C103.789 162.767 104.149 162.441 104.729 162.441C104.905 162.441 105.002 162.45 105.178 162.45C105.626 162.45 106.109 162.257 106.417 161.598L106.549 161.264L103.543 153.336C103.446 153.072 103.394 152.791 103.394 152.58C103.394 151.886 103.965 151.385 104.721 151.385C105.397 151.385 105.749 151.675 105.96 152.422L108.008 158.943H108.052L110.1 152.404C110.311 151.692 110.68 151.385 111.339 151.385C112.077 151.385 112.587 151.868 112.587 152.545C112.587 152.756 112.534 153.055 112.446 153.301L109.555 161.158C108.676 163.593 107.586 164.489 105.521 164.489Z" fill="white"/>
<path d="M219.421 152C218.586 152 218.094 151.49 218.094 150.611V140.697C218.094 139.827 218.586 139.317 219.421 139.317H222.937C226.742 139.317 228.983 141.585 228.983 145.61C228.983 149.636 226.742 152 222.937 152H219.421ZM220.748 149.803H222.62C224.993 149.803 226.276 148.361 226.276 145.619C226.276 142.965 224.958 141.506 222.62 141.506H220.748V149.803ZM234.802 152.202C231.954 152.202 230.135 150.374 230.135 147.28C230.135 144.23 231.98 142.376 234.802 142.376C237.623 142.376 239.469 144.222 239.469 147.28C239.469 150.383 237.649 152.202 234.802 152.202ZM234.802 150.242C236.059 150.242 236.858 149.179 236.858 147.289C236.858 145.417 236.05 144.336 234.802 144.336C233.554 144.336 232.736 145.417 232.736 147.289C232.736 149.179 233.536 150.242 234.802 150.242Z" fill="white"/>
<path d="M154.742 58.167C153.907 58.167 153.415 57.6572 153.415 56.7871V46.5303C153.415 45.6514 153.907 45.1416 154.742 45.1416C155.577 45.1416 156.069 45.6514 156.069 46.5303V50.4678H161.782V46.5303C161.782 45.6514 162.274 45.1416 163.109 45.1416C163.944 45.1416 164.437 45.6514 164.437 46.5303V56.7871C164.437 57.6572 163.944 58.167 163.109 58.167C162.274 58.167 161.782 57.6572 161.782 56.7871V52.6562H156.069V56.7871C156.069 57.6572 155.577 58.167 154.742 58.167ZM168.919 58.1494C167.126 58.1494 165.764 56.9893 165.764 55.293C165.764 53.5791 167.082 52.5859 169.438 52.4453L171.811 52.3047V51.6807C171.811 50.8018 171.195 50.292 170.229 50.292C169.446 50.292 168.972 50.5469 168.4 51.2852C168.119 51.6016 167.794 51.7598 167.381 51.7598C166.757 51.7598 166.309 51.3555 166.309 50.7754C166.309 50.5732 166.353 50.3887 166.44 50.1953C166.88 49.0703 168.392 48.376 170.343 48.376C172.76 48.376 174.333 49.624 174.333 51.5225V56.8926C174.333 57.7451 173.814 58.1846 173.085 58.1846C172.391 58.1846 171.907 57.7979 171.854 57.042V56.5586H171.802C171.274 57.5605 170.097 58.1494 168.919 58.1494ZM169.763 56.2949C170.888 56.2949 171.811 55.5654 171.811 54.5459V53.8604L169.824 53.9834C168.866 54.0537 168.321 54.4844 168.321 55.1523C168.321 55.8555 168.901 56.2949 169.763 56.2949ZM177.312 58.1846C176.574 58.1846 176.056 57.7451 176.056 56.8838V46.4688C176.056 45.5898 176.592 45.124 177.339 45.124C178.095 45.124 178.622 45.5898 178.622 46.4688V50.2129H178.675C179.193 49.0967 180.248 48.4287 181.584 48.4287C183.966 48.4287 185.416 50.248 185.416 53.2891C185.416 56.3213 183.975 58.1494 181.593 58.1494C180.213 58.1494 179.167 57.4814 178.64 56.3828H178.587V56.8838C178.587 57.7363 178.06 58.1846 177.312 58.1846ZM180.714 56.084C181.988 56.084 182.788 55.0117 182.788 53.2891C182.788 51.5752 181.988 50.4854 180.714 50.4854C179.466 50.4854 178.613 51.6016 178.613 53.2891C178.613 54.9941 179.466 56.084 180.714 56.084ZM188.079 47.4092C187.306 47.4092 186.708 46.8203 186.708 46.082C186.708 45.335 187.306 44.7549 188.079 44.7549C188.853 44.7549 189.45 45.335 189.45 46.082C189.45 46.8203 188.853 47.4092 188.079 47.4092ZM188.079 58.1846C187.279 58.1846 186.796 57.6836 186.796 56.8486V49.7295C186.796 48.8945 187.279 48.3848 188.079 48.3848C188.87 48.3848 189.362 48.8945 189.362 49.7295V56.8486C189.362 57.6836 188.87 58.1846 188.079 58.1846ZM191.762 55.5918V50.5117H191.27C190.663 50.5117 190.276 50.1426 190.276 49.5449C190.276 48.9473 190.663 48.5781 191.27 48.5781H191.762V47.5322C191.762 46.7061 192.245 46.1963 193.045 46.1963C193.845 46.1963 194.328 46.7061 194.328 47.5322V48.5781H195.233C195.84 48.5781 196.218 48.9561 196.218 49.5449C196.218 50.1338 195.84 50.5117 195.233 50.5117H194.328V55.0205C194.328 55.6885 194.557 55.9697 195.11 56.0137L195.277 56.0312C195.91 56.1016 196.253 56.3652 196.253 56.9629C196.253 57.7188 195.515 58.1055 194.434 58.1055H194.346C192.632 58.1055 191.762 57.2529 191.762 55.5918Z" fill="white"/>
<defs>
<filter id="filter0_dd_495_12273" x="0" y="72" width="172" height="179" filterUnits="userSpaceOnUse" color-interpolation-filters="sRGB">
<feFlood flood-opacity="0" result="BackgroundImageFix"/>
<feColorMatrix in="SourceAlpha" type="matrix" values="0 0 0 0 0 0 0 0 0 0 0 0 0 0 0 0 0 0 127 0" result="hardAlpha"/>
<feOffset/>
<feGaussianBlur stdDeviation="0.5"/>
<feColorMatrix type="matrix" values="0 0 0 0 0 0 0 0 0 0 0 0 0 0 0 0 0 0 0.4 0"/>
<feBlend mode="normal" in2="BackgroundImageFix" result="effect1_dropShadow_495_12273"/>
<feColorMatrix in="SourceAlpha" type="matrix" values="0 0 0 0 0 0 0 0 0 0 0 0 0 0 0 0 0 0 127 0" result="hardAlpha"/>
<feMorphology radius="6" operator="erode" in="SourceAlpha" result="effect2_dropShadow_495_12273"/>
<feOffset dy="12"/>
<feGaussianBlur stdDeviation="6"/>
<feColorMatrix type="matrix" values="0 0 0 0 0 0 0 0 0 0 0 0 0 0 0 0 0 0 0.16 0"/>
<feBlend mode="normal" in2="effect1_dropShadow_495_12273" result="effect2_dropShadow_495_12273"/>
<feBlend mode="normal" in="SourceGraphic" in2="effect2_dropShadow_495_12273" result="shape"/>
</filter>
<linearGradient id="paint0_linear_495_12273" x1="178" y1="182" x2="178" y2="228" gradientUnits="userSpaceOnUse">
<stop stop-color="#F5F5F5"/>
<stop offset="1" stop-color="#5C33CF"/>
</linearGradient>
<linearGradient id="paint1_linear_495_12273" x1="171" y1="107" x2="171" y2="129" gradientUnits="userSpaceOnUse">
<stop stop-color="#FF4E64"/>
<stop offset="1" stop-color="#D9D9D9"/>
</linearGradient>
<linearGradient id="paint2_linear_495_12273" x1="101" y1="38" x2="101" y2="68" gradientUnits="userSpaceOnUse">
<stop stop-color="#FFB319"/>
<stop offset="1" stop-color="#3448F0"/>
</linearGradient>
</defs>
</svg>
