<svg width="24" height="24" viewBox="0 0 24 24" fill="none" xmlns="http://www.w3.org/2000/svg">
<path d="M21.7501 12.2243C21.7501 11.5615 21.6953 10.8952 21.5783 10.2432H12.1965V13.9976H17.569C17.3461 15.2085 16.6298 16.2796 15.5808 16.9603V19.3964H18.7861C20.6683 17.6983 21.7501 15.1905 21.7501 12.2243Z" fill="#4285F4"/>
<path d="M12.1965 21.7501C14.8791 21.7501 17.1414 20.8867 18.7897 19.3964L15.5845 16.9603C14.6927 17.555 13.5414 17.8918 12.2001 17.8918C9.60527 17.8918 7.4051 16.1758 6.61567 13.8687H3.30811V16.38C4.99661 19.6722 8.43574 21.7501 12.1965 21.7501Z" fill="#34A853"/>
<path d="M6.61196 13.8685C6.19532 12.6576 6.19532 11.3464 6.61196 10.1356V7.62427H3.30805C1.89732 10.3792 1.89732 13.6249 3.30805 16.3798L6.61196 13.8685Z" fill="#FBBC04"/>
<path d="M12.1965 6.10897C13.6145 6.08747 14.9851 6.61051 16.0121 7.57061L18.8518 4.78704C17.0537 3.13194 14.6671 2.222 12.1965 2.25066C8.43574 2.25066 4.99661 4.32848 3.30811 7.62435L6.61201 10.1357C7.39779 7.82497 9.60161 6.10897 12.1965 6.10897Z" fill="#EA4335"/>
</svg>
