<svg width="172" height="39" viewBox="0 0 172 39" fill="none" xmlns="http://www.w3.org/2000/svg">
<g clip-path="url(#clip0_495_4462)">
<path d="M5.79494 38.9978C5.58335 38.9685 5.36797 38.9246 5.15638 38.8954C3.56564 38.6576 2.23562 37.9444 1.16631 36.7887C0.323708 35.8816 -0.197722 34.8063 -0.413095 33.5993C-0.465994 33.2701 -0.488665 32.93 -0.5 32.5972V27.612C-0.496222 25.07 1.14742 22.7292 3.53541 21.7563C5.30752 21.0431 7.08718 20.3518 8.86684 19.6606C14.4968 17.4514 20.138 15.2423 25.7717 13.0332C26.637 12.693 27.4985 12.3529 28.3751 12.0127C29.1119 11.7238 29.879 11.5702 30.68 11.497C33.9446 11.2081 37.0354 12.8174 38.6261 15.4617C39.1816 16.3798 39.5556 17.36 39.6803 18.4243C39.7332 18.8486 39.7672 19.2802 39.7672 19.7044C39.7672 23.9874 39.7899 28.274 39.7672 32.5679C39.7559 35.7463 37.3792 38.2956 34.4018 38.8442C34.1448 38.8954 33.8917 38.9064 33.6348 38.9466C33.5592 38.9576 33.4761 38.9759 33.4005 38.9978H29.3386C29.2517 38.9759 29.1686 38.9576 29.0817 38.9356C28.9003 38.9137 28.7076 38.9064 28.5263 38.8734C26.5841 38.5004 25.0727 37.5092 24.0148 35.8779C23.3837 34.8977 23.055 33.8224 23.0437 32.6667V29.3822C23.0437 29.1042 23.021 28.8153 22.9568 28.5446C22.5525 26.7378 20.7615 25.7576 19.1707 25.9844C17.4553 26.2221 16.216 27.6888 16.2386 29.2579C16.2613 30.3002 16.2386 31.3536 16.2386 32.396C16.2386 32.8605 16.1971 33.314 16.0988 33.7676C15.5321 36.5948 13.0383 38.7125 10.1477 38.9393C10.0722 38.9393 9.99661 38.9795 9.91348 38.9905H5.79872L5.79494 38.9978Z" fill="#FF4E64"/>
<path d="M171.504 22.9742C171.492 23.0657 171.462 23.1608 171.462 23.2522C171.322 25.6369 170.408 27.6924 168.689 29.3932C167.174 30.9 165.307 31.7998 163.176 32.1582C161 32.5313 158.88 32.3557 156.84 31.4889C153.651 30.1356 151.701 27.7729 151.028 24.4592C150.579 22.2281 150.847 20.0702 151.894 18.0293C153.152 15.5824 155.158 13.9731 157.845 13.1758C160.66 12.3492 163.444 12.5064 166.078 13.7939C168.946 15.1984 170.673 17.4807 171.304 20.5237C171.39 20.937 171.409 21.3613 171.455 21.7746C171.455 21.8587 171.485 21.9392 171.496 22.0233V22.9633L171.508 22.9742H171.504ZM161.158 28.1459C161.585 28.0947 162.031 28.0728 162.451 27.9923C164.37 27.601 165.734 26.5366 166.471 24.7627C166.951 23.607 167.026 22.4073 166.747 21.2003C166.297 19.2509 165.114 17.9086 163.153 17.2466C162.129 16.8954 161.064 16.8442 160.006 17.0417C157.969 17.4221 156.541 18.5267 155.804 20.4176C155.411 21.4381 155.336 22.5024 155.517 23.5777C155.804 25.2602 156.681 26.5732 158.226 27.4181C159.133 27.9119 160.115 28.1203 161.158 28.1496V28.1459Z" fill="white"/>
<path d="M127.054 19.836V9.10852C127.054 8.97319 127.054 8.83055 127.095 8.69522C127.235 8.15757 127.715 7.79548 128.278 7.79548C130.953 7.79548 133.632 7.76622 136.319 7.79548C138.858 7.82474 141.216 8.48674 143.324 9.85831C145.818 11.4896 147.397 13.7499 148.157 16.5589C148.531 17.9231 148.636 19.3166 148.542 20.7174C148.361 23.3289 147.476 25.6843 145.727 27.7069C144.083 29.5979 142.005 30.8049 139.553 31.4449C138.412 31.7448 137.248 31.8802 136.054 31.8802H128.429C128.289 31.8802 128.153 31.8802 128.025 31.8509C127.469 31.7375 127.077 31.2511 127.065 30.7061V19.836H127.054ZM131.724 19.8287V26.8803C131.724 26.9828 131.724 27.0852 131.735 27.1803C131.766 27.3961 131.939 27.5716 132.151 27.6155C132.227 27.6265 132.31 27.6265 132.397 27.6265H135.926C136.557 27.6265 137.184 27.5643 137.792 27.4217C140.343 26.8328 142.175 25.3991 143.177 23.0327C143.891 21.3392 143.989 19.5946 143.57 17.8207C143.184 16.1785 142.353 14.8069 141.012 13.7316C139.647 12.649 138.057 12.1113 136.307 12.0601C134.974 12.0199 133.64 12.0492 132.317 12.0382H132.264C131.955 12.0601 131.743 12.254 131.72 12.5539V19.8323L131.724 19.8287Z" fill="white"/>
<path d="M96.1912 19.2693V7.81033C96.2214 7.15929 96.7466 6.6765 97.4192 6.66553H99.4784C100.17 6.66553 100.706 7.18124 100.714 7.85422V13.4063C100.714 13.9001 101.205 14.1378 101.609 13.9111C102.422 13.4575 103.283 13.1466 104.202 12.9528C105.343 12.7041 106.506 12.6529 107.666 12.7663C109.318 12.9199 110.855 13.4063 112.231 14.3061C114.332 15.6593 115.665 17.5576 116.262 19.9203C116.829 22.1404 116.72 24.3496 115.813 26.4636C114.513 29.5286 112.144 31.3976 108.807 32.1108C106.748 32.5461 104.723 32.3998 102.751 31.6573C102.089 31.4086 101.458 31.0794 100.873 30.688C100.756 30.6039 100.627 30.5417 100.468 30.5417C100.223 30.5417 100.03 30.7063 99.9356 30.955C99.8827 31.0904 99.8412 31.233 99.7543 31.3574C99.52 31.6975 99.1875 31.884 98.7643 31.884H97.3889C96.7693 31.8731 96.2592 31.3976 96.2063 30.7904V19.2693H96.1949H96.1912ZM111.974 22.316C111.951 22.1112 111.932 21.6869 111.834 21.2846C111.471 19.5802 110.5 18.2891 108.879 17.5064C107.674 16.9175 106.385 16.7932 105.063 17.0309C103.4 17.3308 102.108 18.1647 101.247 19.5802C100.48 20.8384 100.264 22.2246 100.563 23.6473C100.956 25.5968 102.12 26.972 104.039 27.7145C105.04 28.1058 106.098 28.179 107.153 28.0327C108.539 27.8352 109.711 27.2463 110.617 26.2039C111.547 25.1396 111.951 23.8924 111.963 22.3014L111.974 22.3123V22.316Z" fill="white"/>
<path d="M49.765 19.774V9.01731C49.765 8.6991 49.8406 8.41748 50.0522 8.17242C50.2864 7.90543 50.5849 7.74815 50.959 7.73718H51.9074C52.3004 7.73718 52.6971 7.74815 53.0901 7.73718C53.8571 7.70792 54.4428 8.26386 54.4428 9.03925C54.4314 11.5373 54.4428 14.0354 54.4428 16.5335V16.7932C54.4654 17.0931 54.677 17.2869 54.9982 17.3089H64.3499C64.6069 17.2686 64.7996 17.0711 64.8298 16.8151V9.08314C64.8298 8.94782 64.8298 8.81614 64.86 8.69179C64.9772 8.15414 65.4344 7.76278 66.0125 7.75181C66.7908 7.72987 67.5579 7.72987 68.3362 7.75181C68.9672 7.77376 69.4471 8.24557 69.5 8.86735V30.443C69.5 30.6405 69.4887 30.8343 69.4244 31.0209C69.2733 31.4963 68.8161 31.8365 68.306 31.8365C67.5503 31.8365 66.7908 31.8475 66.0351 31.8365C65.3966 31.8255 64.8714 31.3208 64.8411 30.7027V22.1258C64.8109 21.8369 64.5955 21.6394 64.297 21.6211H54.9869C54.711 21.643 54.507 21.8369 54.4768 22.1075V30.4503C54.4768 30.5856 54.4768 30.7173 54.4541 30.8417C54.3672 31.3793 53.8873 31.8219 53.3243 31.8328C52.5346 31.8548 51.7449 31.8548 50.9552 31.8328C50.3582 31.8109 49.8444 31.2952 49.8141 30.7173V19.774L49.7612 19.785L49.765 19.774Z" fill="white"/>
<path d="M92.9153 22.5208V30.5527C92.9153 30.7172 92.9153 30.8818 92.8624 31.0391C92.7226 31.5256 92.2768 31.8657 91.7515 31.8767C91.2188 31.8876 90.686 31.8876 90.1533 31.8767C89.6318 31.8657 89.1935 31.5256 89.0424 31.0391C89.0197 30.9769 89.0122 30.9038 88.9895 30.8343C88.895 30.5051 88.521 30.3588 88.2111 30.5234C88.1809 30.5453 88.1469 30.5636 88.1167 30.5856C86.7413 31.5256 85.2148 32.0705 83.5523 32.2461C81.527 32.4619 79.5735 32.1949 77.741 31.3061C75.1603 30.0662 73.4751 28.0838 72.6854 25.4212C71.9372 22.9121 72.0997 20.436 73.2597 18.0696C74.6124 15.3228 76.8757 13.6221 79.9363 12.9381C82.1127 12.4517 84.2437 12.6089 86.3257 13.4319C86.9982 13.6989 87.6255 14.05 88.2225 14.4633C88.3811 14.5767 88.5436 14.6388 88.7439 14.5767C88.9252 14.5145 89.0537 14.4011 89.1066 14.2255C89.1293 14.1634 89.1368 14.0902 89.1595 14.0207C89.288 13.4831 89.7452 13.1137 90.3233 13.1027H91.7327C92.4241 13.1137 92.9267 13.6074 92.938 14.2914V22.4988L92.9153 22.5208ZM82.6228 16.8955C82.2298 16.9358 81.8217 16.9577 81.4288 17.0309C79.7322 17.3491 78.4324 18.2269 77.5898 19.6825C76.853 20.9517 76.683 22.3269 76.9928 23.7387C77.3858 25.5675 78.474 26.8878 80.2461 27.6413C81.3985 28.135 82.6152 28.2192 83.8508 27.9924C85.5586 27.6742 86.8584 26.7745 87.6784 25.2895C88.3811 24.0204 88.5323 22.6671 88.2451 21.2626C88.0222 20.158 87.497 19.2071 86.6657 18.4244C85.5473 17.382 84.1795 16.9284 82.6341 16.8846L82.6228 16.8955Z" fill="white"/>
<path d="M-0.496171 12.6418V8.04796C-0.518842 4.67208 1.77469 1.4937 5.2849 0.389135C5.99903 0.162369 6.73583 0.0489864 7.49153 0.00875381C8.96513 -0.0534238 10.3707 0.213574 11.6705 0.875583C13.8885 2.0021 15.3281 3.74673 15.978 6.08753C16.1707 6.7788 16.2651 7.50299 16.2349 8.21254C16.1065 11.2154 14.7084 13.5086 12.0635 15.0887C11.4023 15.48 10.6654 15.7177 9.93998 16.0067C7.28371 17.0491 4.63878 18.0805 1.98251 19.1339C1.68401 19.2472 1.39684 19.3497 1.07567 19.3387C0.255745 19.3167 -0.458387 18.6694 -0.492393 17.872C-0.496171 17.5246 -0.484836 17.1734 -0.484836 16.8223V12.6308L-0.496171 12.6418Z" fill="#FF4E64"/>
<path d="M123.759 22.5316V30.5232C123.759 30.6988 123.759 30.8853 123.695 31.0499C123.544 31.5437 123.086 31.8765 122.565 31.8875H120.434C119.826 31.8875 119.323 31.4449 119.251 30.8561C119.24 30.7427 119.229 30.6183 119.229 30.505V14.5363C119.229 14.3717 119.229 14.2071 119.27 14.0498C119.399 13.5451 119.867 13.172 120.411 13.1611C121.125 13.1501 121.851 13.1501 122.565 13.1611C123.203 13.172 123.717 13.6768 123.748 14.2949V22.5316H123.759Z" fill="white"/>
<path d="M24.4379 0.015975C27.0526 -0.148613 29.5237 1.76061 29.6938 4.56957C29.8524 7.21395 27.8045 9.55475 24.9178 9.69008C22.133 9.81444 19.968 7.81012 19.7224 5.37422C19.405 2.21414 21.963 0.0781527 24.4379 0.015975Z" fill="#FF4E64"/>
<path d="M121.443 6.51186C122.712 6.48991 123.767 7.41892 123.831 8.68076C123.895 9.89871 122.882 10.963 121.601 11.0252C120.343 11.0874 119.232 10.1255 119.168 8.90752C119.093 7.6274 120.086 6.58501 121.439 6.52283V6.51186H121.443Z" fill="white"/>
</g>
<defs>
<clipPath id="clip0_495_4462">
<rect width="172" height="39" fill="white"/>
</clipPath>
</defs>
</svg>
