<svg width="40" height="39" viewBox="0 0 40 39" fill="none" xmlns="http://www.w3.org/2000/svg">
<g clip-path="url(#clip0_516_14447)">
<path d="M5.79494 38.9978C5.58335 38.9685 5.36797 38.9246 5.15638 38.8954C3.56564 38.6576 2.23562 37.9444 1.16631 36.7887C0.323708 35.8816 -0.197722 34.8063 -0.413095 33.5993C-0.465994 33.2701 -0.488665 32.93 -0.5 32.5972V27.612C-0.496222 25.07 1.14742 22.7292 3.53541 21.7563C5.30752 21.0431 7.08718 20.3518 8.86684 19.6606C14.4968 17.4514 20.138 15.2423 25.7717 13.0332C26.637 12.693 27.4985 12.3529 28.3751 12.0127C29.1119 11.7238 29.879 11.5702 30.68 11.497C33.9446 11.2081 37.0354 12.8174 38.6261 15.4617C39.1816 16.3798 39.5556 17.36 39.6803 18.4243C39.7332 18.8486 39.7672 19.2802 39.7672 19.7044C39.7672 23.9874 39.7899 28.274 39.7672 32.5679C39.7559 35.7463 37.3792 38.2956 34.4018 38.8442C34.1448 38.8954 33.8917 38.9064 33.6348 38.9466C33.5592 38.9576 33.4761 38.9759 33.4005 38.9978H29.3386C29.2517 38.9759 29.1686 38.9576 29.0817 38.9356C28.9003 38.9137 28.7076 38.9064 28.5263 38.8734C26.5841 38.5004 25.0727 37.5092 24.0148 35.8779C23.3837 34.8977 23.055 33.8224 23.0437 32.6667V29.3822C23.0437 29.1042 23.021 28.8153 22.9568 28.5446C22.5525 26.7378 20.7615 25.7576 19.1707 25.9844C17.4553 26.2221 16.216 27.6888 16.2386 29.2579C16.2613 30.3002 16.2386 31.3536 16.2386 32.396C16.2386 32.8605 16.1971 33.314 16.0988 33.7676C15.5321 36.5948 13.0383 38.7125 10.1477 38.9393C10.0722 38.9393 9.99661 38.9795 9.91348 38.9905H5.79872L5.79494 38.9978Z" fill="#FF4E64"/>
<path d="M-0.496171 12.6418V8.04796C-0.518842 4.67208 1.77469 1.4937 5.2849 0.389135C5.99903 0.162369 6.73583 0.0489864 7.49153 0.00875381C8.96513 -0.0534238 10.3707 0.213574 11.6705 0.875583C13.8885 2.0021 15.3281 3.74673 15.978 6.08753C16.1707 6.7788 16.2651 7.50299 16.2349 8.21254C16.1065 11.2154 14.7084 13.5086 12.0635 15.0887C11.4023 15.48 10.6654 15.7177 9.93998 16.0067C7.28371 17.0491 4.63878 18.0805 1.98251 19.1339C1.68401 19.2472 1.39684 19.3497 1.07567 19.3387C0.255745 19.3167 -0.458387 18.6694 -0.492393 17.872C-0.496171 17.5246 -0.484836 17.1734 -0.484836 16.8223V12.6308L-0.496171 12.6418Z" fill="#FF4E64"/>
<path d="M24.4379 0.015975C27.0526 -0.148613 29.5237 1.76061 29.6938 4.56957C29.8524 7.21395 27.8045 9.55475 24.9178 9.69008C22.133 9.81444 19.968 7.81012 19.7224 5.37422C19.405 2.21414 21.963 0.0781527 24.4379 0.015975Z" fill="#FF4E64"/>
</g>
<defs>
<clipPath id="clip0_516_14447">
<rect width="40" height="39" fill="white"/>
</clipPath>
</defs>
</svg>
