<svg width="39" height="39" viewBox="0 0 39 39" fill="none" xmlns="http://www.w3.org/2000/svg">
<path d="M19.0579 13.8656C19.536 13.3918 19.5394 12.6201 19.0656 12.1421C18.5918 11.664 17.8201 11.6606 17.3421 12.1344L15.0002 14.4554C14.1289 15.3189 13.4022 16.0391 12.8841 16.6843C12.3407 17.361 11.9273 18.0721 11.8169 18.9386C11.7931 19.125 11.7812 19.3125 11.7812 19.5C11.7812 19.6875 11.7931 19.875 11.8169 20.0614C11.9273 20.9279 12.3407 21.639 12.8841 22.3157C13.4022 22.9609 14.1289 23.6811 15.0002 24.5446L17.3421 26.8656C17.8201 27.3394 18.5918 27.336 19.0656 26.8579C19.5394 26.3799 19.536 25.6082 19.0579 25.1344L16.7661 22.8629C15.8319 21.937 15.2057 21.3137 14.7846 20.7895C14.7798 20.7834 14.775 20.7775 14.7703 20.7715C14.756 20.7537 14.7422 20.7361 14.7287 20.7188H26C26.6731 20.7188 27.2188 20.1731 27.2188 19.5C27.2188 18.8269 26.6731 18.2812 26 18.2812H14.7287C14.7467 18.2582 14.7653 18.2346 14.7846 18.2105C15.2057 17.6863 15.8319 17.063 16.7661 16.1371L19.0579 13.8656Z" fill="#5A5A5A"/>
<path fill-rule="evenodd" clip-rule="evenodd" d="M26.7532 3.85731C24.8973 3.65623 22.5579 3.65624 19.5735 3.65625H19.4265C16.4421 3.65624 14.1027 3.65623 12.2468 3.85731C10.3528 4.06251 8.81816 4.48878 7.50788 5.44075C6.71465 6.01707 6.01707 6.71465 5.44075 7.50788C4.48878 8.81816 4.06251 10.3528 3.85731 12.2468C3.65623 14.1027 3.65624 16.4421 3.65625 19.4265V19.5735C3.65624 22.5579 3.65623 24.8973 3.85731 26.7532C4.06251 28.6472 4.48878 30.1818 5.44075 31.4921C6.01707 32.2854 6.71465 32.9829 7.50788 33.5593C8.81816 34.5112 10.3528 34.9375 12.2468 35.1427C14.1027 35.3438 16.442 35.3438 19.4263 35.3438H19.5736C22.5579 35.3438 24.8973 35.3438 26.7532 35.1427C28.6472 34.9375 30.1818 34.5112 31.4921 33.5593C32.2854 32.9829 32.9829 32.2854 33.5593 31.4921C34.5112 30.1818 34.9375 28.6472 35.1427 26.7532C35.3438 24.8973 35.3438 22.558 35.3438 19.5737V19.4264C35.3438 16.4421 35.3438 14.1027 35.1427 12.2468C34.9375 10.3528 34.5112 8.81816 33.5593 7.50788C32.9829 6.71465 32.2854 6.01707 31.4921 5.44075C30.1818 4.48878 28.6472 4.06251 26.7532 3.85731ZM8.94061 7.41273C9.76612 6.81296 10.8227 6.46336 12.5093 6.28063C14.2187 6.09542 16.4262 6.09375 19.5 6.09375C22.5738 6.09375 24.7813 6.09542 26.4907 6.28063C28.1773 6.46336 29.2339 6.81296 30.0594 7.41273C30.6457 7.8387 31.1613 8.35431 31.5873 8.94061C32.187 9.76612 32.5366 10.8227 32.7194 12.5093C32.9046 14.2187 32.9062 16.4262 32.9062 19.5C32.9062 22.5738 32.9046 24.7813 32.7194 26.4907C32.5366 28.1773 32.187 29.2339 31.5873 30.0594C31.1613 30.6457 30.6457 31.1613 30.0594 31.5873C29.2339 32.187 28.1773 32.5366 26.4907 32.7194C24.7813 32.9046 22.5738 32.9062 19.5 32.9062C16.4262 32.9062 14.2187 32.9046 12.5093 32.7194C10.8227 32.5366 9.76612 32.187 8.94061 31.5873C8.35431 31.1613 7.8387 30.6457 7.41273 30.0594C6.81296 29.2339 6.46336 28.1773 6.28063 26.4907C6.09542 24.7813 6.09375 22.5738 6.09375 19.5C6.09375 16.4262 6.09542 14.2187 6.28063 12.5093C6.46336 10.8227 6.81296 9.76612 7.41273 8.94061C7.8387 8.3543 8.3543 7.8387 8.94061 7.41273Z" fill="#5A5A5A"/>
</svg>
